<mxfile host="app.diagrams.net" modified="2023-07-27T08:18:19.493Z" agent="Mozilla/5.0 (Windows NT 10.0; Win64; x64; rv:109.0) Gecko/20100101 Firefox/115.0" etag="WjD_ajZp3XH0-1kolQhS" version="21.6.5" type="device">
  <diagram name="Page-1" id="c4acf3e9-155e-7222-9cf6-157b1a14988f">
    <mxGraphModel dx="4120" dy="2102" grid="1" gridSize="10" guides="1" tooltips="1" connect="1" arrows="1" fold="1" page="1" pageScale="1" pageWidth="850" pageHeight="1100" background="none" math="0" shadow="0">
      <root>
        <mxCell id="0" />
        <mxCell id="1" parent="0" />
        <mxCell id="17acba5748e5396b-1" value="view" style="shape=umlFrame;whiteSpace=wrap;html=1;rounded=0;shadow=0;comic=0;labelBackgroundColor=none;strokeWidth=1;fontFamily=Verdana;fontSize=10;align=center;" parent="1" vertex="1">
          <mxGeometry x="2310" y="160" width="1000" height="860" as="geometry" />
        </mxCell>
        <mxCell id="V0L1piygFVYsYo5sQdoZ-9" value="model" style="shape=umlFrame;whiteSpace=wrap;html=1;rounded=0;shadow=0;comic=0;labelBackgroundColor=none;strokeWidth=1;fontFamily=Verdana;fontSize=10;align=center;" vertex="1" parent="1">
          <mxGeometry x="500" y="160" width="1770" height="910" as="geometry" />
        </mxCell>
        <mxCell id="V0L1piygFVYsYo5sQdoZ-10" value="controller" style="shape=umlFrame;whiteSpace=wrap;html=1;rounded=0;shadow=0;comic=0;labelBackgroundColor=none;strokeWidth=1;fontFamily=Verdana;fontSize=10;align=center;" vertex="1" parent="1">
          <mxGeometry x="100" y="160" width="360" height="440" as="geometry" />
        </mxCell>
        <mxCell id="V0L1piygFVYsYo5sQdoZ-11" value="util" style="shape=umlFrame;whiteSpace=wrap;html=1;rounded=0;shadow=0;comic=0;labelBackgroundColor=none;strokeWidth=1;fontFamily=Verdana;fontSize=10;align=center;" vertex="1" parent="1">
          <mxGeometry x="100" y="640" width="280" height="240" as="geometry" />
        </mxCell>
        <mxCell id="V0L1piygFVYsYo5sQdoZ-12" value="gestore" style="shape=umlFrame;whiteSpace=wrap;html=1;rounded=0;shadow=0;comic=0;labelBackgroundColor=none;strokeWidth=1;fontFamily=Verdana;fontSize=10;align=center;" vertex="1" parent="1">
          <mxGeometry x="2350" y="200" width="600" height="580" as="geometry" />
        </mxCell>
        <mxCell id="V0L1piygFVYsYo5sQdoZ-13" value="login" style="shape=umlFrame;whiteSpace=wrap;html=1;rounded=0;shadow=0;comic=0;labelBackgroundColor=none;strokeWidth=1;fontFamily=Verdana;fontSize=10;align=center;" vertex="1" parent="1">
          <mxGeometry x="2990" y="200" width="280" height="200" as="geometry" />
        </mxCell>
        <mxCell id="V0L1piygFVYsYo5sQdoZ-24" value="Main" style="swimlane;fontStyle=2;align=center;verticalAlign=top;childLayout=stackLayout;horizontal=1;startSize=26;horizontalStack=0;resizeParent=1;resizeLast=0;collapsible=1;marginBottom=0;rounded=0;shadow=0;strokeWidth=1;" vertex="1" parent="1">
          <mxGeometry x="1660" y="40" width="160" height="60" as="geometry">
            <mxRectangle x="230" y="140" width="160" height="26" as="alternateBounds" />
          </mxGeometry>
        </mxCell>
        <mxCell id="V0L1piygFVYsYo5sQdoZ-28" value="+main(String[]): void" style="text;align=left;verticalAlign=top;spacingLeft=4;spacingRight=4;overflow=hidden;rotatable=0;points=[[0,0.5],[1,0.5]];portConstraint=eastwest;" vertex="1" parent="V0L1piygFVYsYo5sQdoZ-24">
          <mxGeometry y="26" width="160" height="26" as="geometry" />
        </mxCell>
        <mxCell id="V0L1piygFVYsYo5sQdoZ-29" value="ControllerGestore" style="swimlane;fontStyle=2;align=center;verticalAlign=top;childLayout=stackLayout;horizontal=1;startSize=26;horizontalStack=0;resizeParent=1;resizeLast=0;collapsible=1;marginBottom=0;rounded=0;shadow=0;strokeWidth=1;" vertex="1" parent="1">
          <mxGeometry x="140" y="200" width="280" height="360" as="geometry">
            <mxRectangle x="230" y="140" width="160" height="26" as="alternateBounds" />
          </mxGeometry>
        </mxCell>
        <mxCell id="V0L1piygFVYsYo5sQdoZ-30" value="-modelloGestore: ModelloGestore" style="text;align=left;verticalAlign=top;spacingLeft=4;spacingRight=4;overflow=hidden;rotatable=0;points=[[0,0.5],[1,0.5]];portConstraint=eastwest;" vertex="1" parent="V0L1piygFVYsYo5sQdoZ-29">
          <mxGeometry y="26" width="280" height="26" as="geometry" />
        </mxCell>
        <mxCell id="V0L1piygFVYsYo5sQdoZ-31" value="-modelliTabella: ModelloTabella[]" style="text;align=left;verticalAlign=top;spacingLeft=4;spacingRight=4;overflow=hidden;rotatable=0;points=[[0,0.5],[1,0.5]];portConstraint=eastwest;rounded=0;shadow=0;html=0;" vertex="1" parent="V0L1piygFVYsYo5sQdoZ-29">
          <mxGeometry y="52" width="280" height="26" as="geometry" />
        </mxCell>
        <mxCell id="V0L1piygFVYsYo5sQdoZ-34" value="-idTabellaAttiva: int" style="text;align=left;verticalAlign=top;spacingLeft=4;spacingRight=4;overflow=hidden;rotatable=0;points=[[0,0.5],[1,0.5]];portConstraint=eastwest;rounded=0;shadow=0;html=0;" vertex="1" parent="V0L1piygFVYsYo5sQdoZ-29">
          <mxGeometry y="78" width="280" height="26" as="geometry" />
        </mxCell>
        <mxCell id="V0L1piygFVYsYo5sQdoZ-35" value="-threadAutosalva: ThreadAutosalva" style="text;align=left;verticalAlign=top;spacingLeft=4;spacingRight=4;overflow=hidden;rotatable=0;points=[[0,0.5],[1,0.5]];portConstraint=eastwest;rounded=0;shadow=0;html=0;" vertex="1" parent="V0L1piygFVYsYo5sQdoZ-29">
          <mxGeometry y="104" width="280" height="26" as="geometry" />
        </mxCell>
        <mxCell id="V0L1piygFVYsYo5sQdoZ-32" value="" style="line;html=1;strokeWidth=1;align=left;verticalAlign=middle;spacingTop=-1;spacingLeft=3;spacingRight=3;rotatable=0;labelPosition=right;points=[];portConstraint=eastwest;" vertex="1" parent="V0L1piygFVYsYo5sQdoZ-29">
          <mxGeometry y="130" width="280" height="8" as="geometry" />
        </mxCell>
        <mxCell id="V0L1piygFVYsYo5sQdoZ-33" value="+ControllerGestore(ModelloGestore)" style="text;align=left;verticalAlign=top;spacingLeft=4;spacingRight=4;overflow=hidden;rotatable=0;points=[[0,0.5],[1,0.5]];portConstraint=eastwest;" vertex="1" parent="V0L1piygFVYsYo5sQdoZ-29">
          <mxGeometry y="138" width="280" height="26" as="geometry" />
        </mxCell>
        <mxCell id="V0L1piygFVYsYo5sQdoZ-36" value="+init(): void" style="text;align=left;verticalAlign=top;spacingLeft=4;spacingRight=4;overflow=hidden;rotatable=0;points=[[0,0.5],[1,0.5]];portConstraint=eastwest;" vertex="1" parent="V0L1piygFVYsYo5sQdoZ-29">
          <mxGeometry y="164" width="280" height="26" as="geometry" />
        </mxCell>
        <mxCell id="V0L1piygFVYsYo5sQdoZ-38" value="+getInfoIstanzaSelezionata(int): String[]" style="text;align=left;verticalAlign=top;spacingLeft=4;spacingRight=4;overflow=hidden;rotatable=0;points=[[0,0.5],[1,0.5]];portConstraint=eastwest;" vertex="1" parent="V0L1piygFVYsYo5sQdoZ-29">
          <mxGeometry y="190" width="280" height="26" as="geometry" />
        </mxCell>
        <mxCell id="V0L1piygFVYsYo5sQdoZ-39" value="+getModelloTabella(int): ModelloTabella" style="text;align=left;verticalAlign=top;spacingLeft=4;spacingRight=4;overflow=hidden;rotatable=0;points=[[0,0.5],[1,0.5]];portConstraint=eastwest;" vertex="1" parent="V0L1piygFVYsYo5sQdoZ-29">
          <mxGeometry y="216" width="280" height="26" as="geometry" />
        </mxCell>
        <mxCell id="V0L1piygFVYsYo5sQdoZ-40" value="+creaElementoTabellaAttiva(FieldCreatore[]): void" style="text;align=left;verticalAlign=top;spacingLeft=4;spacingRight=4;overflow=hidden;rotatable=0;points=[[0,0.5],[1,0.5]];portConstraint=eastwest;" vertex="1" parent="V0L1piygFVYsYo5sQdoZ-29">
          <mxGeometry y="242" width="280" height="26" as="geometry" />
        </mxCell>
        <mxCell id="V0L1piygFVYsYo5sQdoZ-43" value="+rimuoviElementoTabellaAttiva(int): void" style="text;align=left;verticalAlign=top;spacingLeft=4;spacingRight=4;overflow=hidden;rotatable=0;points=[[0,0.5],[1,0.5]];portConstraint=eastwest;" vertex="1" parent="V0L1piygFVYsYo5sQdoZ-29">
          <mxGeometry y="268" width="280" height="26" as="geometry" />
        </mxCell>
        <mxCell id="V0L1piygFVYsYo5sQdoZ-44" value="+faiAcquisto(int): void" style="text;align=left;verticalAlign=top;spacingLeft=4;spacingRight=4;overflow=hidden;rotatable=0;points=[[0,0.5],[1,0.5]];portConstraint=eastwest;" vertex="1" parent="V0L1piygFVYsYo5sQdoZ-29">
          <mxGeometry y="294" width="280" height="26" as="geometry" />
        </mxCell>
        <mxCell id="V0L1piygFVYsYo5sQdoZ-45" value="+aggiungiDesiderio(int): void" style="text;align=left;verticalAlign=top;spacingLeft=4;spacingRight=4;overflow=hidden;rotatable=0;points=[[0,0.5],[1,0.5]];portConstraint=eastwest;" vertex="1" parent="V0L1piygFVYsYo5sQdoZ-29">
          <mxGeometry y="320" width="280" height="26" as="geometry" />
        </mxCell>
        <mxCell id="V0L1piygFVYsYo5sQdoZ-46" value="Acquisto" style="swimlane;fontStyle=2;align=center;verticalAlign=top;childLayout=stackLayout;horizontal=1;startSize=26;horizontalStack=0;resizeParent=1;resizeLast=0;collapsible=1;marginBottom=0;rounded=0;shadow=0;strokeWidth=1;" vertex="1" parent="1">
          <mxGeometry x="540" y="200" width="160" height="138" as="geometry">
            <mxRectangle x="230" y="140" width="160" height="26" as="alternateBounds" />
          </mxGeometry>
        </mxCell>
        <mxCell id="V0L1piygFVYsYo5sQdoZ-47" value="-giocoAcquistato: Gioco" style="text;align=left;verticalAlign=top;spacingLeft=4;spacingRight=4;overflow=hidden;rotatable=0;points=[[0,0.5],[1,0.5]];portConstraint=eastwest;" vertex="1" parent="V0L1piygFVYsYo5sQdoZ-46">
          <mxGeometry y="26" width="160" height="26" as="geometry" />
        </mxCell>
        <mxCell id="V0L1piygFVYsYo5sQdoZ-48" value="-dataAcquisto: long" style="text;align=left;verticalAlign=top;spacingLeft=4;spacingRight=4;overflow=hidden;rotatable=0;points=[[0,0.5],[1,0.5]];portConstraint=eastwest;rounded=0;shadow=0;html=0;" vertex="1" parent="V0L1piygFVYsYo5sQdoZ-46">
          <mxGeometry y="52" width="160" height="26" as="geometry" />
        </mxCell>
        <mxCell id="V0L1piygFVYsYo5sQdoZ-49" value="" style="line;html=1;strokeWidth=1;align=left;verticalAlign=middle;spacingTop=-1;spacingLeft=3;spacingRight=3;rotatable=0;labelPosition=right;points=[];portConstraint=eastwest;" vertex="1" parent="V0L1piygFVYsYo5sQdoZ-46">
          <mxGeometry y="78" width="160" height="8" as="geometry" />
        </mxCell>
        <mxCell id="V0L1piygFVYsYo5sQdoZ-50" value="+Acquisto(Gioco, long)" style="text;align=left;verticalAlign=top;spacingLeft=4;spacingRight=4;overflow=hidden;rotatable=0;points=[[0,0.5],[1,0.5]];portConstraint=eastwest;" vertex="1" parent="V0L1piygFVYsYo5sQdoZ-46">
          <mxGeometry y="86" width="160" height="26" as="geometry" />
        </mxCell>
        <mxCell id="V0L1piygFVYsYo5sQdoZ-51" value="+formatData(): String" style="text;align=left;verticalAlign=top;spacingLeft=4;spacingRight=4;overflow=hidden;rotatable=0;points=[[0,0.5],[1,0.5]];portConstraint=eastwest;" vertex="1" parent="V0L1piygFVYsYo5sQdoZ-46">
          <mxGeometry y="112" width="160" height="26" as="geometry" />
        </mxCell>
        <mxCell id="V0L1piygFVYsYo5sQdoZ-53" value="AdminUser" style="swimlane;fontStyle=2;align=center;verticalAlign=top;childLayout=stackLayout;horizontal=1;startSize=26;horizontalStack=0;resizeParent=1;resizeLast=0;collapsible=1;marginBottom=0;rounded=0;shadow=0;strokeWidth=1;" vertex="1" parent="1">
          <mxGeometry x="780" y="200" width="160" height="156" as="geometry">
            <mxRectangle x="230" y="140" width="160" height="26" as="alternateBounds" />
          </mxGeometry>
        </mxCell>
        <mxCell id="V0L1piygFVYsYo5sQdoZ-57" value="+getUsername(): String" style="text;align=left;verticalAlign=top;spacingLeft=4;spacingRight=4;overflow=hidden;rotatable=0;points=[[0,0.5],[1,0.5]];portConstraint=eastwest;" vertex="1" parent="V0L1piygFVYsYo5sQdoZ-53">
          <mxGeometry y="26" width="160" height="26" as="geometry" />
        </mxCell>
        <mxCell id="V0L1piygFVYsYo5sQdoZ-58" value="+getPassword(): String" style="text;align=left;verticalAlign=top;spacingLeft=4;spacingRight=4;overflow=hidden;rotatable=0;points=[[0,0.5],[1,0.5]];portConstraint=eastwest;" vertex="1" parent="V0L1piygFVYsYo5sQdoZ-53">
          <mxGeometry y="52" width="160" height="26" as="geometry" />
        </mxCell>
        <mxCell id="V0L1piygFVYsYo5sQdoZ-61" value="+isAdmin(): boolean" style="text;align=left;verticalAlign=top;spacingLeft=4;spacingRight=4;overflow=hidden;rotatable=0;points=[[0,0.5],[1,0.5]];portConstraint=eastwest;" vertex="1" parent="V0L1piygFVYsYo5sQdoZ-53">
          <mxGeometry y="78" width="160" height="26" as="geometry" />
        </mxCell>
        <mxCell id="V0L1piygFVYsYo5sQdoZ-62" value="+acquista(Gioco): void" style="text;align=left;verticalAlign=top;spacingLeft=4;spacingRight=4;overflow=hidden;rotatable=0;points=[[0,0.5],[1,0.5]];portConstraint=eastwest;" vertex="1" parent="V0L1piygFVYsYo5sQdoZ-53">
          <mxGeometry y="104" width="160" height="26" as="geometry" />
        </mxCell>
        <mxCell id="V0L1piygFVYsYo5sQdoZ-63" value="+desidera(Gioco): void" style="text;align=left;verticalAlign=top;spacingLeft=4;spacingRight=4;overflow=hidden;rotatable=0;points=[[0,0.5],[1,0.5]];portConstraint=eastwest;" vertex="1" parent="V0L1piygFVYsYo5sQdoZ-53">
          <mxGeometry y="130" width="160" height="26" as="geometry" />
        </mxCell>
        <mxCell id="V0L1piygFVYsYo5sQdoZ-59" value="&lt;p style=&quot;margin:0px;margin-top:4px;text-align:center;&quot;&gt;&lt;i&gt;&amp;lt;&amp;lt;Interface&amp;gt;&amp;gt;&lt;/i&gt;&lt;/p&gt;&lt;p style=&quot;margin:0px;margin-top:4px;text-align:center;&quot;&gt;&lt;b&gt;User&lt;/b&gt;&lt;br&gt;&lt;/p&gt;&lt;hr size=&quot;1&quot;&gt;&lt;p style=&quot;margin:0px;margin-left:4px;&quot;&gt;+getUsername(): String&lt;br&gt;+getPassword(): String&lt;/p&gt;&lt;p style=&quot;margin:0px;margin-left:4px;&quot;&gt;+isAdmin(): boolean&lt;/p&gt;&lt;p style=&quot;margin:0px;margin-left:4px;&quot;&gt;+acquista(Gioco): void&lt;/p&gt;&lt;p style=&quot;margin:0px;margin-left:4px;&quot;&gt;+desidera(Gioco): void&lt;br&gt;&lt;/p&gt;" style="verticalAlign=top;align=left;overflow=fill;fontSize=12;fontFamily=Helvetica;html=1;rounded=0;shadow=0;comic=0;labelBackgroundColor=none;strokeWidth=1" vertex="1" parent="1">
          <mxGeometry x="1140" y="200" width="200" height="140" as="geometry" />
        </mxCell>
        <mxCell id="V0L1piygFVYsYo5sQdoZ-60" value="" style="endArrow=block;dashed=1;endFill=0;endSize=12;html=1;rounded=0;exitX=1;exitY=0;exitDx=0;exitDy=0;entryX=0;entryY=0;entryDx=0;entryDy=0;" edge="1" parent="1" source="V0L1piygFVYsYo5sQdoZ-53" target="V0L1piygFVYsYo5sQdoZ-59">
          <mxGeometry width="160" relative="1" as="geometry">
            <mxPoint x="820" y="400" as="sourcePoint" />
            <mxPoint x="980" y="400" as="targetPoint" />
          </mxGeometry>
        </mxCell>
        <mxCell id="V0L1piygFVYsYo5sQdoZ-64" value="AutoreGioco" style="swimlane;fontStyle=2;align=center;verticalAlign=top;childLayout=stackLayout;horizontal=1;startSize=26;horizontalStack=0;resizeParent=1;resizeLast=0;collapsible=1;marginBottom=0;rounded=0;shadow=0;strokeWidth=1;" vertex="1" parent="1">
          <mxGeometry x="540" y="520" width="250" height="294" as="geometry">
            <mxRectangle x="230" y="140" width="160" height="26" as="alternateBounds" />
          </mxGeometry>
        </mxCell>
        <mxCell id="V0L1piygFVYsYo5sQdoZ-66" value="-nome: String" style="text;align=left;verticalAlign=top;spacingLeft=4;spacingRight=4;overflow=hidden;rotatable=0;points=[[0,0.5],[1,0.5]];portConstraint=eastwest;rounded=0;shadow=0;html=0;" vertex="1" parent="V0L1piygFVYsYo5sQdoZ-64">
          <mxGeometry y="26" width="250" height="26" as="geometry" />
        </mxCell>
        <mxCell id="V0L1piygFVYsYo5sQdoZ-70" value="-cognome: String" style="text;align=left;verticalAlign=top;spacingLeft=4;spacingRight=4;overflow=hidden;rotatable=0;points=[[0,0.5],[1,0.5]];portConstraint=eastwest;rounded=0;shadow=0;html=0;" vertex="1" parent="V0L1piygFVYsYo5sQdoZ-64">
          <mxGeometry y="52" width="250" height="26" as="geometry" />
        </mxCell>
        <mxCell id="V0L1piygFVYsYo5sQdoZ-71" value="-premiVinti: int" style="text;align=left;verticalAlign=top;spacingLeft=4;spacingRight=4;overflow=hidden;rotatable=0;points=[[0,0.5],[1,0.5]];portConstraint=eastwest;rounded=0;shadow=0;html=0;" vertex="1" parent="V0L1piygFVYsYo5sQdoZ-64">
          <mxGeometry y="78" width="250" height="26" as="geometry" />
        </mxCell>
        <mxCell id="V0L1piygFVYsYo5sQdoZ-72" value="-dataNascita: int" style="text;align=left;verticalAlign=top;spacingLeft=4;spacingRight=4;overflow=hidden;rotatable=0;points=[[0,0.5],[1,0.5]];portConstraint=eastwest;rounded=0;shadow=0;html=0;" vertex="1" parent="V0L1piygFVYsYo5sQdoZ-64">
          <mxGeometry y="104" width="250" height="26" as="geometry" />
        </mxCell>
        <mxCell id="V0L1piygFVYsYo5sQdoZ-73" value="-bio: String" style="text;align=left;verticalAlign=top;spacingLeft=4;spacingRight=4;overflow=hidden;rotatable=0;points=[[0,0.5],[1,0.5]];portConstraint=eastwest;rounded=0;shadow=0;html=0;" vertex="1" parent="V0L1piygFVYsYo5sQdoZ-64">
          <mxGeometry y="130" width="250" height="26" as="geometry" />
        </mxCell>
        <mxCell id="V0L1piygFVYsYo5sQdoZ-74" value="-giochiCreati: List&lt;Gioco&gt;" style="text;align=left;verticalAlign=top;spacingLeft=4;spacingRight=4;overflow=hidden;rotatable=0;points=[[0,0.5],[1,0.5]];portConstraint=eastwest;rounded=0;shadow=0;html=0;" vertex="1" parent="V0L1piygFVYsYo5sQdoZ-64">
          <mxGeometry y="156" width="250" height="26" as="geometry" />
        </mxCell>
        <mxCell id="V0L1piygFVYsYo5sQdoZ-67" value="" style="line;html=1;strokeWidth=1;align=left;verticalAlign=middle;spacingTop=-1;spacingLeft=3;spacingRight=3;rotatable=0;labelPosition=right;points=[];portConstraint=eastwest;" vertex="1" parent="V0L1piygFVYsYo5sQdoZ-64">
          <mxGeometry y="182" width="250" height="8" as="geometry" />
        </mxCell>
        <mxCell id="V0L1piygFVYsYo5sQdoZ-68" value="+AutoreGioco(String, String, int, String, int)" style="text;align=left;verticalAlign=top;spacingLeft=4;spacingRight=4;overflow=hidden;rotatable=0;points=[[0,0.5],[1,0.5]];portConstraint=eastwest;" vertex="1" parent="V0L1piygFVYsYo5sQdoZ-64">
          <mxGeometry y="190" width="250" height="26" as="geometry" />
        </mxCell>
        <mxCell id="V0L1piygFVYsYo5sQdoZ-75" value="+get/set ..." style="text;align=left;verticalAlign=top;spacingLeft=4;spacingRight=4;overflow=hidden;rotatable=0;points=[[0,0.5],[1,0.5]];portConstraint=eastwest;" vertex="1" parent="V0L1piygFVYsYo5sQdoZ-64">
          <mxGeometry y="216" width="250" height="26" as="geometry" />
        </mxCell>
        <mxCell id="V0L1piygFVYsYo5sQdoZ-76" value="+toTabFields(): String[]" style="text;align=left;verticalAlign=top;spacingLeft=4;spacingRight=4;overflow=hidden;rotatable=0;points=[[0,0.5],[1,0.5]];portConstraint=eastwest;" vertex="1" parent="V0L1piygFVYsYo5sQdoZ-64">
          <mxGeometry y="242" width="250" height="26" as="geometry" />
        </mxCell>
        <mxCell id="V0L1piygFVYsYo5sQdoZ-77" value="+toStringFields(): String[]" style="text;align=left;verticalAlign=top;spacingLeft=4;spacingRight=4;overflow=hidden;rotatable=0;points=[[0,0.5],[1,0.5]];portConstraint=eastwest;" vertex="1" parent="V0L1piygFVYsYo5sQdoZ-64">
          <mxGeometry y="268" width="250" height="26" as="geometry" />
        </mxCell>
        <mxCell id="V0L1piygFVYsYo5sQdoZ-78" value="&lt;p style=&quot;margin:0px;margin-top:4px;text-align:center;&quot;&gt;&lt;i&gt;&amp;lt;&amp;lt;Interface&amp;gt;&amp;gt;&lt;/i&gt;&lt;/p&gt;&lt;p style=&quot;margin:0px;margin-top:4px;text-align:center;&quot;&gt;&lt;b&gt;OggettoGestore&lt;/b&gt;&lt;br&gt;&lt;/p&gt;&lt;hr size=&quot;1&quot;&gt;&lt;p style=&quot;margin:0px;margin-left:4px;&quot;&gt;+toTabFields(): String[]&lt;br&gt;+toStringFields(): String[]&lt;/p&gt;" style="verticalAlign=top;align=left;overflow=fill;fontSize=12;fontFamily=Helvetica;html=1;rounded=0;shadow=0;comic=0;labelBackgroundColor=none;strokeWidth=1" vertex="1" parent="1">
          <mxGeometry x="1560" y="520" width="200" height="90" as="geometry" />
        </mxCell>
        <mxCell id="V0L1piygFVYsYo5sQdoZ-79" value="" style="endArrow=block;dashed=1;endFill=0;endSize=12;html=1;rounded=0;exitX=1;exitY=0;exitDx=0;exitDy=0;entryX=0;entryY=0;entryDx=0;entryDy=0;" edge="1" parent="1" source="V0L1piygFVYsYo5sQdoZ-64" target="V0L1piygFVYsYo5sQdoZ-78">
          <mxGeometry width="160" relative="1" as="geometry">
            <mxPoint x="890" y="240" as="sourcePoint" />
            <mxPoint x="950" y="210" as="targetPoint" />
          </mxGeometry>
        </mxCell>
        <mxCell id="V0L1piygFVYsYo5sQdoZ-80" value="Giocatore" style="swimlane;fontStyle=2;align=center;verticalAlign=top;childLayout=stackLayout;horizontal=1;startSize=26;horizontalStack=0;resizeParent=1;resizeLast=0;collapsible=1;marginBottom=0;rounded=0;shadow=0;strokeWidth=1;" vertex="1" parent="1">
          <mxGeometry x="830" y="600" width="250" height="430" as="geometry">
            <mxRectangle x="230" y="140" width="160" height="26" as="alternateBounds" />
          </mxGeometry>
        </mxCell>
        <mxCell id="V0L1piygFVYsYo5sQdoZ-81" value="-nick: String" style="text;align=left;verticalAlign=top;spacingLeft=4;spacingRight=4;overflow=hidden;rotatable=0;points=[[0,0.5],[1,0.5]];portConstraint=eastwest;rounded=0;shadow=0;html=0;" vertex="1" parent="V0L1piygFVYsYo5sQdoZ-80">
          <mxGeometry y="26" width="250" height="26" as="geometry" />
        </mxCell>
        <mxCell id="V0L1piygFVYsYo5sQdoZ-82" value="-password: String" style="text;align=left;verticalAlign=top;spacingLeft=4;spacingRight=4;overflow=hidden;rotatable=0;points=[[0,0.5],[1,0.5]];portConstraint=eastwest;rounded=0;shadow=0;html=0;" vertex="1" parent="V0L1piygFVYsYo5sQdoZ-80">
          <mxGeometry y="52" width="250" height="26" as="geometry" />
        </mxCell>
        <mxCell id="V0L1piygFVYsYo5sQdoZ-83" value="-nome: String" style="text;align=left;verticalAlign=top;spacingLeft=4;spacingRight=4;overflow=hidden;rotatable=0;points=[[0,0.5],[1,0.5]];portConstraint=eastwest;rounded=0;shadow=0;html=0;" vertex="1" parent="V0L1piygFVYsYo5sQdoZ-80">
          <mxGeometry y="78" width="250" height="26" as="geometry" />
        </mxCell>
        <mxCell id="V0L1piygFVYsYo5sQdoZ-84" value="-cognome: String" style="text;align=left;verticalAlign=top;spacingLeft=4;spacingRight=4;overflow=hidden;rotatable=0;points=[[0,0.5],[1,0.5]];portConstraint=eastwest;rounded=0;shadow=0;html=0;" vertex="1" parent="V0L1piygFVYsYo5sQdoZ-80">
          <mxGeometry y="104" width="250" height="26" as="geometry" />
        </mxCell>
        <mxCell id="V0L1piygFVYsYo5sQdoZ-85" value="-acquisti: List&lt;Acquisto&gt;" style="text;align=left;verticalAlign=top;spacingLeft=4;spacingRight=4;overflow=hidden;rotatable=0;points=[[0,0.5],[1,0.5]];portConstraint=eastwest;rounded=0;shadow=0;html=0;" vertex="1" parent="V0L1piygFVYsYo5sQdoZ-80">
          <mxGeometry y="130" width="250" height="26" as="geometry" />
        </mxCell>
        <mxCell id="V0L1piygFVYsYo5sQdoZ-86" value="-desideri: List&lt;Gioco&gt;" style="text;align=left;verticalAlign=top;spacingLeft=4;spacingRight=4;overflow=hidden;rotatable=0;points=[[0,0.5],[1,0.5]];portConstraint=eastwest;rounded=0;shadow=0;html=0;" vertex="1" parent="V0L1piygFVYsYo5sQdoZ-80">
          <mxGeometry y="156" width="250" height="26" as="geometry" />
        </mxCell>
        <mxCell id="V0L1piygFVYsYo5sQdoZ-87" value="" style="line;html=1;strokeWidth=1;align=left;verticalAlign=middle;spacingTop=-1;spacingLeft=3;spacingRight=3;rotatable=0;labelPosition=right;points=[];portConstraint=eastwest;" vertex="1" parent="V0L1piygFVYsYo5sQdoZ-80">
          <mxGeometry y="182" width="250" height="8" as="geometry" />
        </mxCell>
        <mxCell id="V0L1piygFVYsYo5sQdoZ-88" value="+AutoreGioco(String, String, String, String)" style="text;align=left;verticalAlign=top;spacingLeft=4;spacingRight=4;overflow=hidden;rotatable=0;points=[[0,0.5],[1,0.5]];portConstraint=eastwest;" vertex="1" parent="V0L1piygFVYsYo5sQdoZ-80">
          <mxGeometry y="190" width="250" height="26" as="geometry" />
        </mxCell>
        <mxCell id="V0L1piygFVYsYo5sQdoZ-89" value="+get/set ..." style="text;align=left;verticalAlign=top;spacingLeft=4;spacingRight=4;overflow=hidden;rotatable=0;points=[[0,0.5],[1,0.5]];portConstraint=eastwest;" vertex="1" parent="V0L1piygFVYsYo5sQdoZ-80">
          <mxGeometry y="216" width="250" height="26" as="geometry" />
        </mxCell>
        <mxCell id="V0L1piygFVYsYo5sQdoZ-90" value="+toTabFields(): String[]" style="text;align=left;verticalAlign=top;spacingLeft=4;spacingRight=4;overflow=hidden;rotatable=0;points=[[0,0.5],[1,0.5]];portConstraint=eastwest;" vertex="1" parent="V0L1piygFVYsYo5sQdoZ-80">
          <mxGeometry y="242" width="250" height="26" as="geometry" />
        </mxCell>
        <mxCell id="V0L1piygFVYsYo5sQdoZ-91" value="+toStringFields(): String[]" style="text;align=left;verticalAlign=top;spacingLeft=4;spacingRight=4;overflow=hidden;rotatable=0;points=[[0,0.5],[1,0.5]];portConstraint=eastwest;" vertex="1" parent="V0L1piygFVYsYo5sQdoZ-80">
          <mxGeometry y="268" width="250" height="26" as="geometry" />
        </mxCell>
        <mxCell id="V0L1piygFVYsYo5sQdoZ-106" value="+acquista(Gioco): void" style="text;align=left;verticalAlign=top;spacingLeft=4;spacingRight=4;overflow=hidden;rotatable=0;points=[[0,0.5],[1,0.5]];portConstraint=eastwest;" vertex="1" parent="V0L1piygFVYsYo5sQdoZ-80">
          <mxGeometry y="294" width="250" height="26" as="geometry" />
        </mxCell>
        <mxCell id="V0L1piygFVYsYo5sQdoZ-107" value="+desidera(Gioco): void" style="text;align=left;verticalAlign=top;spacingLeft=4;spacingRight=4;overflow=hidden;rotatable=0;points=[[0,0.5],[1,0.5]];portConstraint=eastwest;" vertex="1" parent="V0L1piygFVYsYo5sQdoZ-80">
          <mxGeometry y="320" width="250" height="26" as="geometry" />
        </mxCell>
        <mxCell id="V0L1piygFVYsYo5sQdoZ-108" value="+getUsername(): String" style="text;align=left;verticalAlign=top;spacingLeft=4;spacingRight=4;overflow=hidden;rotatable=0;points=[[0,0.5],[1,0.5]];portConstraint=eastwest;" vertex="1" parent="V0L1piygFVYsYo5sQdoZ-80">
          <mxGeometry y="346" width="250" height="26" as="geometry" />
        </mxCell>
        <mxCell id="V0L1piygFVYsYo5sQdoZ-109" value="+getPassword(): String" style="text;align=left;verticalAlign=top;spacingLeft=4;spacingRight=4;overflow=hidden;rotatable=0;points=[[0,0.5],[1,0.5]];portConstraint=eastwest;" vertex="1" parent="V0L1piygFVYsYo5sQdoZ-80">
          <mxGeometry y="372" width="250" height="26" as="geometry" />
        </mxCell>
        <mxCell id="V0L1piygFVYsYo5sQdoZ-110" value="+isAdmin(): boolean" style="text;align=left;verticalAlign=top;spacingLeft=4;spacingRight=4;overflow=hidden;rotatable=0;points=[[0,0.5],[1,0.5]];portConstraint=eastwest;" vertex="1" parent="V0L1piygFVYsYo5sQdoZ-80">
          <mxGeometry y="398" width="250" height="26" as="geometry" />
        </mxCell>
        <mxCell id="V0L1piygFVYsYo5sQdoZ-104" value="" style="endArrow=block;dashed=1;endFill=0;endSize=12;html=1;rounded=0;exitX=1;exitY=0;exitDx=0;exitDy=0;entryX=0;entryY=0;entryDx=0;entryDy=0;" edge="1" parent="1" source="V0L1piygFVYsYo5sQdoZ-80" target="V0L1piygFVYsYo5sQdoZ-78">
          <mxGeometry width="160" relative="1" as="geometry">
            <mxPoint x="800" y="410" as="sourcePoint" />
            <mxPoint x="1230" y="410" as="targetPoint" />
          </mxGeometry>
        </mxCell>
        <mxCell id="V0L1piygFVYsYo5sQdoZ-105" value="" style="endArrow=block;dashed=1;endFill=0;endSize=12;html=1;rounded=0;exitX=1;exitY=0;exitDx=0;exitDy=0;entryX=0;entryY=0;entryDx=0;entryDy=0;" edge="1" parent="1" source="V0L1piygFVYsYo5sQdoZ-80" target="V0L1piygFVYsYo5sQdoZ-59">
          <mxGeometry width="160" relative="1" as="geometry">
            <mxPoint x="810" y="420" as="sourcePoint" />
            <mxPoint x="1240" y="420" as="targetPoint" />
          </mxGeometry>
        </mxCell>
        <mxCell id="V0L1piygFVYsYo5sQdoZ-111" value="Gioco" style="swimlane;fontStyle=2;align=center;verticalAlign=top;childLayout=stackLayout;horizontal=1;startSize=26;horizontalStack=0;resizeParent=1;resizeLast=0;collapsible=1;marginBottom=0;rounded=0;shadow=0;strokeWidth=1;" vertex="1" parent="1">
          <mxGeometry x="1120" y="620" width="360" height="372" as="geometry">
            <mxRectangle x="230" y="140" width="160" height="26" as="alternateBounds" />
          </mxGeometry>
        </mxCell>
        <mxCell id="V0L1piygFVYsYo5sQdoZ-112" value="-nome: String" style="text;align=left;verticalAlign=top;spacingLeft=4;spacingRight=4;overflow=hidden;rotatable=0;points=[[0,0.5],[1,0.5]];portConstraint=eastwest;rounded=0;shadow=0;html=0;" vertex="1" parent="V0L1piygFVYsYo5sQdoZ-111">
          <mxGeometry y="26" width="360" height="26" as="geometry" />
        </mxCell>
        <mxCell id="V0L1piygFVYsYo5sQdoZ-123" value="-anno: int" style="text;align=left;verticalAlign=top;spacingLeft=4;spacingRight=4;overflow=hidden;rotatable=0;points=[[0,0.5],[1,0.5]];portConstraint=eastwest;rounded=0;shadow=0;html=0;" vertex="1" parent="V0L1piygFVYsYo5sQdoZ-111">
          <mxGeometry y="52" width="360" height="26" as="geometry" />
        </mxCell>
        <mxCell id="V0L1piygFVYsYo5sQdoZ-113" value="-multigiocatore: boolean" style="text;align=left;verticalAlign=top;spacingLeft=4;spacingRight=4;overflow=hidden;rotatable=0;points=[[0,0.5],[1,0.5]];portConstraint=eastwest;rounded=0;shadow=0;html=0;" vertex="1" parent="V0L1piygFVYsYo5sQdoZ-111">
          <mxGeometry y="78" width="360" height="26" as="geometry" />
        </mxCell>
        <mxCell id="V0L1piygFVYsYo5sQdoZ-116" value="-genere: String" style="text;align=left;verticalAlign=top;spacingLeft=4;spacingRight=4;overflow=hidden;rotatable=0;points=[[0,0.5],[1,0.5]];portConstraint=eastwest;rounded=0;shadow=0;html=0;" vertex="1" parent="V0L1piygFVYsYo5sQdoZ-111">
          <mxGeometry y="104" width="360" height="26" as="geometry" />
        </mxCell>
        <mxCell id="V0L1piygFVYsYo5sQdoZ-117" value="-minGiocatori: int" style="text;align=left;verticalAlign=top;spacingLeft=4;spacingRight=4;overflow=hidden;rotatable=0;points=[[0,0.5],[1,0.5]];portConstraint=eastwest;rounded=0;shadow=0;html=0;" vertex="1" parent="V0L1piygFVYsYo5sQdoZ-111">
          <mxGeometry y="130" width="360" height="26" as="geometry" />
        </mxCell>
        <mxCell id="V0L1piygFVYsYo5sQdoZ-124" value="-maxGiocatori: int" style="text;align=left;verticalAlign=top;spacingLeft=4;spacingRight=4;overflow=hidden;rotatable=0;points=[[0,0.5],[1,0.5]];portConstraint=eastwest;rounded=0;shadow=0;html=0;" vertex="1" parent="V0L1piygFVYsYo5sQdoZ-111">
          <mxGeometry y="156" width="360" height="26" as="geometry" />
        </mxCell>
        <mxCell id="V0L1piygFVYsYo5sQdoZ-125" value="-autori: List&lt;String&gt;" style="text;align=left;verticalAlign=top;spacingLeft=4;spacingRight=4;overflow=hidden;rotatable=0;points=[[0,0.5],[1,0.5]];portConstraint=eastwest;rounded=0;shadow=0;html=0;" vertex="1" parent="V0L1piygFVYsYo5sQdoZ-111">
          <mxGeometry y="182" width="360" height="26" as="geometry" />
        </mxCell>
        <mxCell id="V0L1piygFVYsYo5sQdoZ-118" value="" style="line;html=1;strokeWidth=1;align=left;verticalAlign=middle;spacingTop=-1;spacingLeft=3;spacingRight=3;rotatable=0;labelPosition=right;points=[];portConstraint=eastwest;" vertex="1" parent="V0L1piygFVYsYo5sQdoZ-111">
          <mxGeometry y="208" width="360" height="8" as="geometry" />
        </mxCell>
        <mxCell id="V0L1piygFVYsYo5sQdoZ-119" value="+AutoreGioco(String, int, List&lt;String&gt;, boolean, int, int, String)" style="text;align=left;verticalAlign=top;spacingLeft=4;spacingRight=4;overflow=hidden;rotatable=0;points=[[0,0.5],[1,0.5]];portConstraint=eastwest;" vertex="1" parent="V0L1piygFVYsYo5sQdoZ-111">
          <mxGeometry y="216" width="360" height="26" as="geometry" />
        </mxCell>
        <mxCell id="V0L1piygFVYsYo5sQdoZ-120" value="+get/set ..." style="text;align=left;verticalAlign=top;spacingLeft=4;spacingRight=4;overflow=hidden;rotatable=0;points=[[0,0.5],[1,0.5]];portConstraint=eastwest;" vertex="1" parent="V0L1piygFVYsYo5sQdoZ-111">
          <mxGeometry y="242" width="360" height="26" as="geometry" />
        </mxCell>
        <mxCell id="V0L1piygFVYsYo5sQdoZ-126" value="+isAutore(String, String): boolean" style="text;align=left;verticalAlign=top;spacingLeft=4;spacingRight=4;overflow=hidden;rotatable=0;points=[[0,0.5],[1,0.5]];portConstraint=eastwest;" vertex="1" parent="V0L1piygFVYsYo5sQdoZ-111">
          <mxGeometry y="268" width="360" height="26" as="geometry" />
        </mxCell>
        <mxCell id="V0L1piygFVYsYo5sQdoZ-127" value="+equals(Object): boolean" style="text;align=left;verticalAlign=top;spacingLeft=4;spacingRight=4;overflow=hidden;rotatable=0;points=[[0,0.5],[1,0.5]];portConstraint=eastwest;" vertex="1" parent="V0L1piygFVYsYo5sQdoZ-111">
          <mxGeometry y="294" width="360" height="26" as="geometry" />
        </mxCell>
        <mxCell id="V0L1piygFVYsYo5sQdoZ-121" value="+toTabFields(): String[]" style="text;align=left;verticalAlign=top;spacingLeft=4;spacingRight=4;overflow=hidden;rotatable=0;points=[[0,0.5],[1,0.5]];portConstraint=eastwest;" vertex="1" parent="V0L1piygFVYsYo5sQdoZ-111">
          <mxGeometry y="320" width="360" height="26" as="geometry" />
        </mxCell>
        <mxCell id="V0L1piygFVYsYo5sQdoZ-122" value="+toStringFields(): String[]" style="text;align=left;verticalAlign=top;spacingLeft=4;spacingRight=4;overflow=hidden;rotatable=0;points=[[0,0.5],[1,0.5]];portConstraint=eastwest;" vertex="1" parent="V0L1piygFVYsYo5sQdoZ-111">
          <mxGeometry y="346" width="360" height="26" as="geometry" />
        </mxCell>
        <mxCell id="V0L1piygFVYsYo5sQdoZ-128" value="" style="endArrow=block;dashed=1;endFill=0;endSize=12;html=1;rounded=0;exitX=1;exitY=0;exitDx=0;exitDy=0;entryX=0;entryY=0;entryDx=0;entryDy=0;" edge="1" parent="1" source="V0L1piygFVYsYo5sQdoZ-111" target="V0L1piygFVYsYo5sQdoZ-78">
          <mxGeometry width="160" relative="1" as="geometry">
            <mxPoint x="1120" y="450" as="sourcePoint" />
            <mxPoint x="1710" y="412" as="targetPoint" />
          </mxGeometry>
        </mxCell>
        <mxCell id="V0L1piygFVYsYo5sQdoZ-129" value="ModelloGestore" style="swimlane;fontStyle=2;align=center;verticalAlign=top;childLayout=stackLayout;horizontal=1;startSize=26;horizontalStack=0;resizeParent=1;resizeLast=0;collapsible=1;marginBottom=0;rounded=0;shadow=0;strokeWidth=1;" vertex="1" parent="1">
          <mxGeometry x="1870" y="260" width="360" height="460" as="geometry">
            <mxRectangle x="230" y="140" width="160" height="26" as="alternateBounds" />
          </mxGeometry>
        </mxCell>
        <mxCell id="V0L1piygFVYsYo5sQdoZ-130" value="-giochi: List&lt;Gioco&gt;" style="text;align=left;verticalAlign=top;spacingLeft=4;spacingRight=4;overflow=hidden;rotatable=0;points=[[0,0.5],[1,0.5]];portConstraint=eastwest;rounded=0;shadow=0;html=0;" vertex="1" parent="V0L1piygFVYsYo5sQdoZ-129">
          <mxGeometry y="26" width="360" height="26" as="geometry" />
        </mxCell>
        <mxCell id="V0L1piygFVYsYo5sQdoZ-131" value="-autori: List&lt;AutoreGioco&gt;" style="text;align=left;verticalAlign=top;spacingLeft=4;spacingRight=4;overflow=hidden;rotatable=0;points=[[0,0.5],[1,0.5]];portConstraint=eastwest;rounded=0;shadow=0;html=0;" vertex="1" parent="V0L1piygFVYsYo5sQdoZ-129">
          <mxGeometry y="52" width="360" height="26" as="geometry" />
        </mxCell>
        <mxCell id="V0L1piygFVYsYo5sQdoZ-132" value="-giocatori: List&lt;Giocatore&gt;" style="text;align=left;verticalAlign=top;spacingLeft=4;spacingRight=4;overflow=hidden;rotatable=0;points=[[0,0.5],[1,0.5]];portConstraint=eastwest;rounded=0;shadow=0;html=0;" vertex="1" parent="V0L1piygFVYsYo5sQdoZ-129">
          <mxGeometry y="78" width="360" height="26" as="geometry" />
        </mxCell>
        <mxCell id="V0L1piygFVYsYo5sQdoZ-133" value="-modelliTabelle: ModelloTabella[]" style="text;align=left;verticalAlign=top;spacingLeft=4;spacingRight=4;overflow=hidden;rotatable=0;points=[[0,0.5],[1,0.5]];portConstraint=eastwest;rounded=0;shadow=0;html=0;" vertex="1" parent="V0L1piygFVYsYo5sQdoZ-129">
          <mxGeometry y="104" width="360" height="26" as="geometry" />
        </mxCell>
        <mxCell id="V0L1piygFVYsYo5sQdoZ-137" value="" style="line;html=1;strokeWidth=1;align=left;verticalAlign=middle;spacingTop=-1;spacingLeft=3;spacingRight=3;rotatable=0;labelPosition=right;points=[];portConstraint=eastwest;" vertex="1" parent="V0L1piygFVYsYo5sQdoZ-129">
          <mxGeometry y="130" width="360" height="8" as="geometry" />
        </mxCell>
        <mxCell id="V0L1piygFVYsYo5sQdoZ-138" value="+ModelloGestore()" style="text;align=left;verticalAlign=top;spacingLeft=4;spacingRight=4;overflow=hidden;rotatable=0;points=[[0,0.5],[1,0.5]];portConstraint=eastwest;" vertex="1" parent="V0L1piygFVYsYo5sQdoZ-129">
          <mxGeometry y="138" width="360" height="26" as="geometry" />
        </mxCell>
        <mxCell id="V0L1piygFVYsYo5sQdoZ-139" value="+get/set ..." style="text;align=left;verticalAlign=top;spacingLeft=4;spacingRight=4;overflow=hidden;rotatable=0;points=[[0,0.5],[1,0.5]];portConstraint=eastwest;" vertex="1" parent="V0L1piygFVYsYo5sQdoZ-129">
          <mxGeometry y="164" width="360" height="26" as="geometry" />
        </mxCell>
        <mxCell id="V0L1piygFVYsYo5sQdoZ-140" value="-creaIstanzaGioco(String[]): void" style="text;align=left;verticalAlign=top;spacingLeft=4;spacingRight=4;overflow=hidden;rotatable=0;points=[[0,0.5],[1,0.5]];portConstraint=eastwest;" vertex="1" parent="V0L1piygFVYsYo5sQdoZ-129">
          <mxGeometry y="190" width="360" height="26" as="geometry" />
        </mxCell>
        <mxCell id="V0L1piygFVYsYo5sQdoZ-144" value="-creaIstanzaAutore(String[]): void" style="text;align=left;verticalAlign=top;spacingLeft=4;spacingRight=4;overflow=hidden;rotatable=0;points=[[0,0.5],[1,0.5]];portConstraint=eastwest;" vertex="1" parent="V0L1piygFVYsYo5sQdoZ-129">
          <mxGeometry y="216" width="360" height="26" as="geometry" />
        </mxCell>
        <mxCell id="V0L1piygFVYsYo5sQdoZ-145" value="-creaIstanzaGiocatore(String[]): void" style="text;align=left;verticalAlign=top;spacingLeft=4;spacingRight=4;overflow=hidden;rotatable=0;points=[[0,0.5],[1,0.5]];portConstraint=eastwest;" vertex="1" parent="V0L1piygFVYsYo5sQdoZ-129">
          <mxGeometry y="242" width="360" height="26" as="geometry" />
        </mxCell>
        <mxCell id="V0L1piygFVYsYo5sQdoZ-146" value="-aggiornaRiferimentiAutori(): void" style="text;align=left;verticalAlign=top;spacingLeft=4;spacingRight=4;overflow=hidden;rotatable=0;points=[[0,0.5],[1,0.5]];portConstraint=eastwest;" vertex="1" parent="V0L1piygFVYsYo5sQdoZ-129">
          <mxGeometry y="268" width="360" height="26" as="geometry" />
        </mxCell>
        <mxCell id="V0L1piygFVYsYo5sQdoZ-141" value="+creaElemento(int, String[]): void" style="text;align=left;verticalAlign=top;spacingLeft=4;spacingRight=4;overflow=hidden;rotatable=0;points=[[0,0.5],[1,0.5]];portConstraint=eastwest;" vertex="1" parent="V0L1piygFVYsYo5sQdoZ-129">
          <mxGeometry y="294" width="360" height="26" as="geometry" />
        </mxCell>
        <mxCell id="V0L1piygFVYsYo5sQdoZ-148" value="+rimuoviElemento(int, int): void" style="text;align=left;verticalAlign=top;spacingLeft=4;spacingRight=4;overflow=hidden;rotatable=0;points=[[0,0.5],[1,0.5]];portConstraint=eastwest;" vertex="1" parent="V0L1piygFVYsYo5sQdoZ-129">
          <mxGeometry y="320" width="360" height="26" as="geometry" />
        </mxCell>
        <mxCell id="V0L1piygFVYsYo5sQdoZ-142" value="+salvaIstanze(Runnable, Runnable): void" style="text;align=left;verticalAlign=top;spacingLeft=4;spacingRight=4;overflow=hidden;rotatable=0;points=[[0,0.5],[1,0.5]];portConstraint=eastwest;" vertex="1" parent="V0L1piygFVYsYo5sQdoZ-129">
          <mxGeometry y="346" width="360" height="26" as="geometry" />
        </mxCell>
        <mxCell id="V0L1piygFVYsYo5sQdoZ-149" value="+caricaIstanze(Runnable, Runnable): void" style="text;align=left;verticalAlign=top;spacingLeft=4;spacingRight=4;overflow=hidden;rotatable=0;points=[[0,0.5],[1,0.5]];portConstraint=eastwest;" vertex="1" parent="V0L1piygFVYsYo5sQdoZ-129">
          <mxGeometry y="372" width="360" height="26" as="geometry" />
        </mxCell>
        <mxCell id="V0L1piygFVYsYo5sQdoZ-150" value="+caricaIstanze(Runnable, Runnable): void" style="text;align=left;verticalAlign=top;spacingLeft=4;spacingRight=4;overflow=hidden;rotatable=0;points=[[0,0.5],[1,0.5]];portConstraint=eastwest;" vertex="1" parent="V0L1piygFVYsYo5sQdoZ-129">
          <mxGeometry y="398" width="360" height="26" as="geometry" />
        </mxCell>
        <mxCell id="V0L1piygFVYsYo5sQdoZ-143" value="+precaricaIstanzeGiocatori(): void" style="text;align=left;verticalAlign=top;spacingLeft=4;spacingRight=4;overflow=hidden;rotatable=0;points=[[0,0.5],[1,0.5]];portConstraint=eastwest;" vertex="1" parent="V0L1piygFVYsYo5sQdoZ-129">
          <mxGeometry y="424" width="360" height="26" as="geometry" />
        </mxCell>
        <mxCell id="V0L1piygFVYsYo5sQdoZ-151" value="ThreadAutosalva" style="swimlane;fontStyle=2;align=center;verticalAlign=top;childLayout=stackLayout;horizontal=1;startSize=26;horizontalStack=0;resizeParent=1;resizeLast=0;collapsible=1;marginBottom=0;rounded=0;shadow=0;strokeWidth=1;" vertex="1" parent="1">
          <mxGeometry x="1600" y="760" width="250" height="200" as="geometry">
            <mxRectangle x="230" y="140" width="160" height="26" as="alternateBounds" />
          </mxGeometry>
        </mxCell>
        <mxCell id="V0L1piygFVYsYo5sQdoZ-152" value="-modelloGestore: ModelloGestore" style="text;align=left;verticalAlign=top;spacingLeft=4;spacingRight=4;overflow=hidden;rotatable=0;points=[[0,0.5],[1,0.5]];portConstraint=eastwest;rounded=0;shadow=0;html=0;" vertex="1" parent="V0L1piygFVYsYo5sQdoZ-151">
          <mxGeometry y="26" width="250" height="26" as="geometry" />
        </mxCell>
        <mxCell id="V0L1piygFVYsYo5sQdoZ-153" value="-msFrequenza: int" style="text;align=left;verticalAlign=top;spacingLeft=4;spacingRight=4;overflow=hidden;rotatable=0;points=[[0,0.5],[1,0.5]];portConstraint=eastwest;rounded=0;shadow=0;html=0;" vertex="1" parent="V0L1piygFVYsYo5sQdoZ-151">
          <mxGeometry y="52" width="250" height="26" as="geometry" />
        </mxCell>
        <mxCell id="V0L1piygFVYsYo5sQdoZ-154" value="-inEsecuzione: boolean" style="text;align=left;verticalAlign=top;spacingLeft=4;spacingRight=4;overflow=hidden;rotatable=0;points=[[0,0.5],[1,0.5]];portConstraint=eastwest;rounded=0;shadow=0;html=0;" vertex="1" parent="V0L1piygFVYsYo5sQdoZ-151">
          <mxGeometry y="78" width="250" height="26" as="geometry" />
        </mxCell>
        <mxCell id="V0L1piygFVYsYo5sQdoZ-158" value="" style="line;html=1;strokeWidth=1;align=left;verticalAlign=middle;spacingTop=-1;spacingLeft=3;spacingRight=3;rotatable=0;labelPosition=right;points=[];portConstraint=eastwest;" vertex="1" parent="V0L1piygFVYsYo5sQdoZ-151">
          <mxGeometry y="104" width="250" height="8" as="geometry" />
        </mxCell>
        <mxCell id="V0L1piygFVYsYo5sQdoZ-159" value="+ThreadAutosalva(ModelloGestore, int)" style="text;align=left;verticalAlign=top;spacingLeft=4;spacingRight=4;overflow=hidden;rotatable=0;points=[[0,0.5],[1,0.5]];portConstraint=eastwest;" vertex="1" parent="V0L1piygFVYsYo5sQdoZ-151">
          <mxGeometry y="112" width="250" height="26" as="geometry" />
        </mxCell>
        <mxCell id="V0L1piygFVYsYo5sQdoZ-161" value="+termina(): void" style="text;align=left;verticalAlign=top;spacingLeft=4;spacingRight=4;overflow=hidden;rotatable=0;points=[[0,0.5],[1,0.5]];portConstraint=eastwest;" vertex="1" parent="V0L1piygFVYsYo5sQdoZ-151">
          <mxGeometry y="138" width="250" height="26" as="geometry" />
        </mxCell>
        <mxCell id="V0L1piygFVYsYo5sQdoZ-162" value="+run(): void" style="text;align=left;verticalAlign=top;spacingLeft=4;spacingRight=4;overflow=hidden;rotatable=0;points=[[0,0.5],[1,0.5]];portConstraint=eastwest;" vertex="1" parent="V0L1piygFVYsYo5sQdoZ-151">
          <mxGeometry y="164" width="250" height="26" as="geometry" />
        </mxCell>
        <mxCell id="V0L1piygFVYsYo5sQdoZ-163" value="UserManager" style="swimlane;fontStyle=2;align=center;verticalAlign=top;childLayout=stackLayout;horizontal=1;startSize=26;horizontalStack=0;resizeParent=1;resizeLast=0;collapsible=1;marginBottom=0;rounded=0;shadow=0;strokeWidth=1;" vertex="1" parent="1">
          <mxGeometry x="1380" y="200" width="250" height="294" as="geometry">
            <mxRectangle x="230" y="140" width="160" height="26" as="alternateBounds" />
          </mxGeometry>
        </mxCell>
        <mxCell id="V0L1piygFVYsYo5sQdoZ-164" value="-istanza: UserManager" style="text;align=left;verticalAlign=top;spacingLeft=4;spacingRight=4;overflow=hidden;rotatable=0;points=[[0,0.5],[1,0.5]];portConstraint=eastwest;rounded=0;shadow=0;html=0;" vertex="1" parent="V0L1piygFVYsYo5sQdoZ-163">
          <mxGeometry y="26" width="250" height="26" as="geometry" />
        </mxCell>
        <mxCell id="V0L1piygFVYsYo5sQdoZ-165" value="+loggedUser: User" style="text;align=left;verticalAlign=top;spacingLeft=4;spacingRight=4;overflow=hidden;rotatable=0;points=[[0,0.5],[1,0.5]];portConstraint=eastwest;rounded=0;shadow=0;html=0;" vertex="1" parent="V0L1piygFVYsYo5sQdoZ-163">
          <mxGeometry y="52" width="250" height="26" as="geometry" />
        </mxCell>
        <mxCell id="V0L1piygFVYsYo5sQdoZ-166" value="-modelloGestore: ModelloGestore" style="text;align=left;verticalAlign=top;spacingLeft=4;spacingRight=4;overflow=hidden;rotatable=0;points=[[0,0.5],[1,0.5]];portConstraint=eastwest;rounded=0;shadow=0;html=0;" vertex="1" parent="V0L1piygFVYsYo5sQdoZ-163">
          <mxGeometry y="78" width="250" height="26" as="geometry" />
        </mxCell>
        <mxCell id="V0L1piygFVYsYo5sQdoZ-171" value="-onLoginCallback: Runnable" style="text;align=left;verticalAlign=top;spacingLeft=4;spacingRight=4;overflow=hidden;rotatable=0;points=[[0,0.5],[1,0.5]];portConstraint=eastwest;rounded=0;shadow=0;html=0;" vertex="1" parent="V0L1piygFVYsYo5sQdoZ-163">
          <mxGeometry y="104" width="250" height="26" as="geometry" />
        </mxCell>
        <mxCell id="V0L1piygFVYsYo5sQdoZ-167" value="" style="line;html=1;strokeWidth=1;align=left;verticalAlign=middle;spacingTop=-1;spacingLeft=3;spacingRight=3;rotatable=0;labelPosition=right;points=[];portConstraint=eastwest;" vertex="1" parent="V0L1piygFVYsYo5sQdoZ-163">
          <mxGeometry y="130" width="250" height="8" as="geometry" />
        </mxCell>
        <mxCell id="V0L1piygFVYsYo5sQdoZ-168" value="+UserManager(ModelloGestore)" style="text;align=left;verticalAlign=top;spacingLeft=4;spacingRight=4;overflow=hidden;rotatable=0;points=[[0,0.5],[1,0.5]];portConstraint=eastwest;" vertex="1" parent="V0L1piygFVYsYo5sQdoZ-163">
          <mxGeometry y="138" width="250" height="26" as="geometry" />
        </mxCell>
        <mxCell id="V0L1piygFVYsYo5sQdoZ-169" value="+get(): UserManager" style="text;align=left;verticalAlign=top;spacingLeft=4;spacingRight=4;overflow=hidden;rotatable=0;points=[[0,0.5],[1,0.5]];portConstraint=eastwest;" vertex="1" parent="V0L1piygFVYsYo5sQdoZ-163">
          <mxGeometry y="164" width="250" height="26" as="geometry" />
        </mxCell>
        <mxCell id="V0L1piygFVYsYo5sQdoZ-170" value="+setOnLogin(Runnable): void" style="text;align=left;verticalAlign=top;spacingLeft=4;spacingRight=4;overflow=hidden;rotatable=0;points=[[0,0.5],[1,0.5]];portConstraint=eastwest;" vertex="1" parent="V0L1piygFVYsYo5sQdoZ-163">
          <mxGeometry y="190" width="250" height="26" as="geometry" />
        </mxCell>
        <mxCell id="V0L1piygFVYsYo5sQdoZ-172" value="+logInuser(FrameLogin, String, char[]): void" style="text;align=left;verticalAlign=top;spacingLeft=4;spacingRight=4;overflow=hidden;rotatable=0;points=[[0,0.5],[1,0.5]];portConstraint=eastwest;" vertex="1" parent="V0L1piygFVYsYo5sQdoZ-163">
          <mxGeometry y="216" width="250" height="26" as="geometry" />
        </mxCell>
        <mxCell id="V0L1piygFVYsYo5sQdoZ-173" value="+isAdmin(): boolean" style="text;align=left;verticalAlign=top;spacingLeft=4;spacingRight=4;overflow=hidden;rotatable=0;points=[[0,0.5],[1,0.5]];portConstraint=eastwest;" vertex="1" parent="V0L1piygFVYsYo5sQdoZ-163">
          <mxGeometry y="242" width="250" height="26" as="geometry" />
        </mxCell>
        <mxCell id="V0L1piygFVYsYo5sQdoZ-174" value="+getLoggedUserInfo(): String" style="text;align=left;verticalAlign=top;spacingLeft=4;spacingRight=4;overflow=hidden;rotatable=0;points=[[0,0.5],[1,0.5]];portConstraint=eastwest;" vertex="1" parent="V0L1piygFVYsYo5sQdoZ-163">
          <mxGeometry y="268" width="250" height="26" as="geometry" />
        </mxCell>
        <mxCell id="V0L1piygFVYsYo5sQdoZ-175" value="IO" style="swimlane;fontStyle=2;align=center;verticalAlign=top;childLayout=stackLayout;horizontal=1;startSize=26;horizontalStack=0;resizeParent=1;resizeLast=0;collapsible=1;marginBottom=0;rounded=0;shadow=0;strokeWidth=1;" vertex="1" parent="1">
          <mxGeometry x="140" y="680" width="200" height="164" as="geometry">
            <mxRectangle x="230" y="140" width="160" height="26" as="alternateBounds" />
          </mxGeometry>
        </mxCell>
        <mxCell id="V0L1piygFVYsYo5sQdoZ-176" value="-HOME_PATH: String" style="text;align=left;verticalAlign=top;spacingLeft=4;spacingRight=4;overflow=hidden;rotatable=0;points=[[0,0.5],[1,0.5]];portConstraint=eastwest;rounded=0;shadow=0;html=0;" vertex="1" parent="V0L1piygFVYsYo5sQdoZ-175">
          <mxGeometry y="26" width="200" height="26" as="geometry" />
        </mxCell>
        <mxCell id="V0L1piygFVYsYo5sQdoZ-177" value="-cacheImg: Map&lt;String, Image&gt;" style="text;align=left;verticalAlign=top;spacingLeft=4;spacingRight=4;overflow=hidden;rotatable=0;points=[[0,0.5],[1,0.5]];portConstraint=eastwest;rounded=0;shadow=0;html=0;" vertex="1" parent="V0L1piygFVYsYo5sQdoZ-175">
          <mxGeometry y="52" width="200" height="26" as="geometry" />
        </mxCell>
        <mxCell id="V0L1piygFVYsYo5sQdoZ-179" value="" style="line;html=1;strokeWidth=1;align=left;verticalAlign=middle;spacingTop=-1;spacingLeft=3;spacingRight=3;rotatable=0;labelPosition=right;points=[];portConstraint=eastwest;" vertex="1" parent="V0L1piygFVYsYo5sQdoZ-175">
          <mxGeometry y="78" width="200" height="8" as="geometry" />
        </mxCell>
        <mxCell id="V0L1piygFVYsYo5sQdoZ-181" value="+loadImage(String): Image" style="text;align=left;verticalAlign=top;spacingLeft=4;spacingRight=4;overflow=hidden;rotatable=0;points=[[0,0.5],[1,0.5]];portConstraint=eastwest;" vertex="1" parent="V0L1piygFVYsYo5sQdoZ-175">
          <mxGeometry y="86" width="200" height="26" as="geometry" />
        </mxCell>
        <mxCell id="V0L1piygFVYsYo5sQdoZ-182" value="+writeJson(String, String): void" style="text;align=left;verticalAlign=top;spacingLeft=4;spacingRight=4;overflow=hidden;rotatable=0;points=[[0,0.5],[1,0.5]];portConstraint=eastwest;" vertex="1" parent="V0L1piygFVYsYo5sQdoZ-175">
          <mxGeometry y="112" width="200" height="26" as="geometry" />
        </mxCell>
        <mxCell id="V0L1piygFVYsYo5sQdoZ-183" value="+readJson(String): String" style="text;align=left;verticalAlign=top;spacingLeft=4;spacingRight=4;overflow=hidden;rotatable=0;points=[[0,0.5],[1,0.5]];portConstraint=eastwest;" vertex="1" parent="V0L1piygFVYsYo5sQdoZ-175">
          <mxGeometry y="138" width="200" height="26" as="geometry" />
        </mxCell>
        <mxCell id="V0L1piygFVYsYo5sQdoZ-184" value="BarraStato" style="swimlane;fontStyle=2;align=center;verticalAlign=top;childLayout=stackLayout;horizontal=1;startSize=26;horizontalStack=0;resizeParent=1;resizeLast=0;collapsible=1;marginBottom=0;rounded=0;shadow=0;strokeWidth=1;" vertex="1" parent="1">
          <mxGeometry x="2990" y="780" width="200" height="140" as="geometry">
            <mxRectangle x="230" y="140" width="160" height="26" as="alternateBounds" />
          </mxGeometry>
        </mxCell>
        <mxCell id="V0L1piygFVYsYo5sQdoZ-185" value="-istanza: BarraStato" style="text;align=left;verticalAlign=top;spacingLeft=4;spacingRight=4;overflow=hidden;rotatable=0;points=[[0,0.5],[1,0.5]];portConstraint=eastwest;rounded=0;shadow=0;html=0;" vertex="1" parent="V0L1piygFVYsYo5sQdoZ-184">
          <mxGeometry y="26" width="200" height="26" as="geometry" />
        </mxCell>
        <mxCell id="V0L1piygFVYsYo5sQdoZ-187" value="" style="line;html=1;strokeWidth=1;align=left;verticalAlign=middle;spacingTop=-1;spacingLeft=3;spacingRight=3;rotatable=0;labelPosition=right;points=[];portConstraint=eastwest;" vertex="1" parent="V0L1piygFVYsYo5sQdoZ-184">
          <mxGeometry y="52" width="200" height="8" as="geometry" />
        </mxCell>
        <mxCell id="V0L1piygFVYsYo5sQdoZ-188" value="-BarraStato()" style="text;align=left;verticalAlign=top;spacingLeft=4;spacingRight=4;overflow=hidden;rotatable=0;points=[[0,0.5],[1,0.5]];portConstraint=eastwest;" vertex="1" parent="V0L1piygFVYsYo5sQdoZ-184">
          <mxGeometry y="60" width="200" height="26" as="geometry" />
        </mxCell>
        <mxCell id="V0L1piygFVYsYo5sQdoZ-189" value="+get(): BarraStato" style="text;align=left;verticalAlign=top;spacingLeft=4;spacingRight=4;overflow=hidden;rotatable=0;points=[[0,0.5],[1,0.5]];portConstraint=eastwest;" vertex="1" parent="V0L1piygFVYsYo5sQdoZ-184">
          <mxGeometry y="86" width="200" height="26" as="geometry" />
        </mxCell>
        <mxCell id="V0L1piygFVYsYo5sQdoZ-190" value="+setStato(IdentStato): void" style="text;align=left;verticalAlign=top;spacingLeft=4;spacingRight=4;overflow=hidden;rotatable=0;points=[[0,0.5],[1,0.5]];portConstraint=eastwest;" vertex="1" parent="V0L1piygFVYsYo5sQdoZ-184">
          <mxGeometry y="112" width="200" height="26" as="geometry" />
        </mxCell>
        <mxCell id="V0L1piygFVYsYo5sQdoZ-191" value="&lt;p style=&quot;margin:0px;margin-top:4px;text-align:center;&quot;&gt;&lt;i&gt;&amp;lt;&amp;lt;enumeration&amp;gt;&amp;gt;&lt;/i&gt;&lt;/p&gt;&lt;p style=&quot;margin:0px;margin-top:4px;text-align:center;&quot;&gt;&lt;b&gt;IdentStato&lt;/b&gt;&lt;br&gt;&lt;/p&gt;&lt;hr size=&quot;1&quot;&gt;&lt;p style=&quot;margin:0px;margin-left:4px;&quot;&gt;IN_CREAZIONE&lt;br&gt;IN_VISUALIZZAZIONE&lt;br&gt;ON_CARICAMENTO_COMPLETATO&lt;br&gt;ON_CARICAMENTO_FALLITO&lt;br&gt;ON_SALVATAGGIO_COMPLETATO_A&lt;br&gt;ON_SALVATAGGIO_FALLITO_A&lt;br&gt;ON_ELEMENTO_CREATO&lt;br&gt;ON_ELEMENTO_RIMOSSO&lt;br&gt;ON_DESIDERIO_AGGIUNTO&lt;br&gt;ON_DESIDERIO_ESISTENTE&lt;br&gt;ON_ELEMENTO_ACQUISTATO&lt;br&gt;STATO&lt;br&gt;&lt;/p&gt;" style="verticalAlign=top;align=left;overflow=fill;fontSize=12;fontFamily=Helvetica;html=1;rounded=0;shadow=0;comic=0;labelBackgroundColor=none;strokeWidth=1" vertex="1" parent="1">
          <mxGeometry x="2990" y="440" width="200" height="240" as="geometry" />
        </mxCell>
        <mxCell id="V0L1piygFVYsYo5sQdoZ-192" value="ModelloTabella" style="swimlane;fontStyle=2;align=center;verticalAlign=top;childLayout=stackLayout;horizontal=1;startSize=26;horizontalStack=0;resizeParent=1;resizeLast=0;collapsible=1;marginBottom=0;rounded=0;shadow=0;strokeWidth=1;" vertex="1" parent="1">
          <mxGeometry x="2350" y="816" width="200" height="104" as="geometry">
            <mxRectangle x="230" y="140" width="160" height="26" as="alternateBounds" />
          </mxGeometry>
        </mxCell>
        <mxCell id="V0L1piygFVYsYo5sQdoZ-196" value="+ModelloTabella(String[])" style="text;align=left;verticalAlign=top;spacingLeft=4;spacingRight=4;overflow=hidden;rotatable=0;points=[[0,0.5],[1,0.5]];portConstraint=eastwest;" vertex="1" parent="V0L1piygFVYsYo5sQdoZ-192">
          <mxGeometry y="26" width="200" height="26" as="geometry" />
        </mxCell>
        <mxCell id="V0L1piygFVYsYo5sQdoZ-197" value="+removeRow(int): void" style="text;align=left;verticalAlign=top;spacingLeft=4;spacingRight=4;overflow=hidden;rotatable=0;points=[[0,0.5],[1,0.5]];portConstraint=eastwest;" vertex="1" parent="V0L1piygFVYsYo5sQdoZ-192">
          <mxGeometry y="52" width="200" height="26" as="geometry" />
        </mxCell>
        <mxCell id="V0L1piygFVYsYo5sQdoZ-198" value="+isCellEditable(int, int):boolean" style="text;align=left;verticalAlign=top;spacingLeft=4;spacingRight=4;overflow=hidden;rotatable=0;points=[[0,0.5],[1,0.5]];portConstraint=eastwest;" vertex="1" parent="V0L1piygFVYsYo5sQdoZ-192">
          <mxGeometry y="78" width="200" height="26" as="geometry" />
        </mxCell>
        <mxCell id="V0L1piygFVYsYo5sQdoZ-199" value="FieldCreatore" style="swimlane;fontStyle=2;align=center;verticalAlign=top;childLayout=stackLayout;horizontal=1;startSize=26;horizontalStack=0;resizeParent=1;resizeLast=0;collapsible=1;marginBottom=0;rounded=0;shadow=0;strokeWidth=1;" vertex="1" parent="1">
          <mxGeometry x="2390" y="240" width="140" height="138" as="geometry">
            <mxRectangle x="230" y="140" width="160" height="26" as="alternateBounds" />
          </mxGeometry>
        </mxCell>
        <mxCell id="V0L1piygFVYsYo5sQdoZ-200" value="-label: JLabel" style="text;align=left;verticalAlign=top;spacingLeft=4;spacingRight=4;overflow=hidden;rotatable=0;points=[[0,0.5],[1,0.5]];portConstraint=eastwest;rounded=0;shadow=0;html=0;" vertex="1" parent="V0L1piygFVYsYo5sQdoZ-199">
          <mxGeometry y="26" width="140" height="26" as="geometry" />
        </mxCell>
        <mxCell id="V0L1piygFVYsYo5sQdoZ-205" value="-textField: JTextField" style="text;align=left;verticalAlign=top;spacingLeft=4;spacingRight=4;overflow=hidden;rotatable=0;points=[[0,0.5],[1,0.5]];portConstraint=eastwest;rounded=0;shadow=0;html=0;" vertex="1" parent="V0L1piygFVYsYo5sQdoZ-199">
          <mxGeometry y="52" width="140" height="26" as="geometry" />
        </mxCell>
        <mxCell id="V0L1piygFVYsYo5sQdoZ-201" value="" style="line;html=1;strokeWidth=1;align=left;verticalAlign=middle;spacingTop=-1;spacingLeft=3;spacingRight=3;rotatable=0;labelPosition=right;points=[];portConstraint=eastwest;" vertex="1" parent="V0L1piygFVYsYo5sQdoZ-199">
          <mxGeometry y="78" width="140" height="8" as="geometry" />
        </mxCell>
        <mxCell id="V0L1piygFVYsYo5sQdoZ-202" value="+FieldCreatore(String)" style="text;align=left;verticalAlign=top;spacingLeft=4;spacingRight=4;overflow=hidden;rotatable=0;points=[[0,0.5],[1,0.5]];portConstraint=eastwest;" vertex="1" parent="V0L1piygFVYsYo5sQdoZ-199">
          <mxGeometry y="86" width="140" height="26" as="geometry" />
        </mxCell>
        <mxCell id="V0L1piygFVYsYo5sQdoZ-206" value="+getText(): String" style="text;align=left;verticalAlign=top;spacingLeft=4;spacingRight=4;overflow=hidden;rotatable=0;points=[[0,0.5],[1,0.5]];portConstraint=eastwest;" vertex="1" parent="V0L1piygFVYsYo5sQdoZ-199">
          <mxGeometry y="112" width="140" height="26" as="geometry" />
        </mxCell>
        <mxCell id="V0L1piygFVYsYo5sQdoZ-207" value="FieldVisualizza" style="swimlane;fontStyle=2;align=center;verticalAlign=top;childLayout=stackLayout;horizontal=1;startSize=26;horizontalStack=0;resizeParent=1;resizeLast=0;collapsible=1;marginBottom=0;rounded=0;shadow=0;strokeWidth=1;" vertex="1" parent="1">
          <mxGeometry x="2590" y="240" width="180" height="120" as="geometry">
            <mxRectangle x="230" y="140" width="160" height="26" as="alternateBounds" />
          </mxGeometry>
        </mxCell>
        <mxCell id="V0L1piygFVYsYo5sQdoZ-208" value="-nome: JLabel" style="text;align=left;verticalAlign=top;spacingLeft=4;spacingRight=4;overflow=hidden;rotatable=0;points=[[0,0.5],[1,0.5]];portConstraint=eastwest;rounded=0;shadow=0;html=0;" vertex="1" parent="V0L1piygFVYsYo5sQdoZ-207">
          <mxGeometry y="26" width="180" height="26" as="geometry" />
        </mxCell>
        <mxCell id="V0L1piygFVYsYo5sQdoZ-209" value="-info: JLabel" style="text;align=left;verticalAlign=top;spacingLeft=4;spacingRight=4;overflow=hidden;rotatable=0;points=[[0,0.5],[1,0.5]];portConstraint=eastwest;rounded=0;shadow=0;html=0;" vertex="1" parent="V0L1piygFVYsYo5sQdoZ-207">
          <mxGeometry y="52" width="180" height="26" as="geometry" />
        </mxCell>
        <mxCell id="V0L1piygFVYsYo5sQdoZ-210" value="" style="line;html=1;strokeWidth=1;align=left;verticalAlign=middle;spacingTop=-1;spacingLeft=3;spacingRight=3;rotatable=0;labelPosition=right;points=[];portConstraint=eastwest;" vertex="1" parent="V0L1piygFVYsYo5sQdoZ-207">
          <mxGeometry y="78" width="180" height="8" as="geometry" />
        </mxCell>
        <mxCell id="V0L1piygFVYsYo5sQdoZ-211" value="+FieldVisualizza(String, String)" style="text;align=left;verticalAlign=top;spacingLeft=4;spacingRight=4;overflow=hidden;rotatable=0;points=[[0,0.5],[1,0.5]];portConstraint=eastwest;" vertex="1" parent="V0L1piygFVYsYo5sQdoZ-207">
          <mxGeometry y="86" width="180" height="26" as="geometry" />
        </mxCell>
        <mxCell id="V0L1piygFVYsYo5sQdoZ-214" value="FrameCreatore" style="swimlane;fontStyle=2;align=center;verticalAlign=top;childLayout=stackLayout;horizontal=1;startSize=26;horizontalStack=0;resizeParent=1;resizeLast=0;collapsible=1;marginBottom=0;rounded=0;shadow=0;strokeWidth=1;" vertex="1" parent="1">
          <mxGeometry x="2390" y="420" width="220" height="130" as="geometry">
            <mxRectangle x="230" y="140" width="160" height="26" as="alternateBounds" />
          </mxGeometry>
        </mxCell>
        <mxCell id="V0L1piygFVYsYo5sQdoZ-218" value="+FrameCreatore(ControllerGestore)" style="text;align=left;verticalAlign=top;spacingLeft=4;spacingRight=4;overflow=hidden;rotatable=0;points=[[0,0.5],[1,0.5]];portConstraint=eastwest;" vertex="1" parent="V0L1piygFVYsYo5sQdoZ-214">
          <mxGeometry y="26" width="220" height="26" as="geometry" />
        </mxCell>
        <mxCell id="V0L1piygFVYsYo5sQdoZ-219" value="-creatoreGioco(): FieldCreatore[]" style="text;align=left;verticalAlign=top;spacingLeft=4;spacingRight=4;overflow=hidden;rotatable=0;points=[[0,0.5],[1,0.5]];portConstraint=eastwest;" vertex="1" parent="V0L1piygFVYsYo5sQdoZ-214">
          <mxGeometry y="52" width="220" height="26" as="geometry" />
        </mxCell>
        <mxCell id="V0L1piygFVYsYo5sQdoZ-220" value="-creatoreAutore(): FieldCreatore[]" style="text;align=left;verticalAlign=top;spacingLeft=4;spacingRight=4;overflow=hidden;rotatable=0;points=[[0,0.5],[1,0.5]];portConstraint=eastwest;" vertex="1" parent="V0L1piygFVYsYo5sQdoZ-214">
          <mxGeometry y="78" width="220" height="26" as="geometry" />
        </mxCell>
        <mxCell id="V0L1piygFVYsYo5sQdoZ-221" value="-creatoreGiocatore(): FieldCreatore[]" style="text;align=left;verticalAlign=top;spacingLeft=4;spacingRight=4;overflow=hidden;rotatable=0;points=[[0,0.5],[1,0.5]];portConstraint=eastwest;" vertex="1" parent="V0L1piygFVYsYo5sQdoZ-214">
          <mxGeometry y="104" width="220" height="26" as="geometry" />
        </mxCell>
        <mxCell id="V0L1piygFVYsYo5sQdoZ-222" value="FrameGestore" style="swimlane;fontStyle=2;align=center;verticalAlign=top;childLayout=stackLayout;horizontal=1;startSize=26;horizontalStack=0;resizeParent=1;resizeLast=0;collapsible=1;marginBottom=0;rounded=0;shadow=0;strokeWidth=1;" vertex="1" parent="1">
          <mxGeometry x="2550" y="600" width="200" height="138" as="geometry">
            <mxRectangle x="230" y="140" width="160" height="26" as="alternateBounds" />
          </mxGeometry>
        </mxCell>
        <mxCell id="V0L1piygFVYsYo5sQdoZ-223" value="-controller: ControllerGestore" style="text;align=left;verticalAlign=top;spacingLeft=4;spacingRight=4;overflow=hidden;rotatable=0;points=[[0,0.5],[1,0.5]];portConstraint=eastwest;rounded=0;shadow=0;html=0;" vertex="1" parent="V0L1piygFVYsYo5sQdoZ-222">
          <mxGeometry y="26" width="200" height="26" as="geometry" />
        </mxCell>
        <mxCell id="V0L1piygFVYsYo5sQdoZ-224" value="-tabellaAttiva: int" style="text;align=left;verticalAlign=top;spacingLeft=4;spacingRight=4;overflow=hidden;rotatable=0;points=[[0,0.5],[1,0.5]];portConstraint=eastwest;rounded=0;shadow=0;html=0;" vertex="1" parent="V0L1piygFVYsYo5sQdoZ-222">
          <mxGeometry y="52" width="200" height="26" as="geometry" />
        </mxCell>
        <mxCell id="V0L1piygFVYsYo5sQdoZ-227" value="-tabelle: JTable[]" style="text;align=left;verticalAlign=top;spacingLeft=4;spacingRight=4;overflow=hidden;rotatable=0;points=[[0,0.5],[1,0.5]];portConstraint=eastwest;rounded=0;shadow=0;html=0;" vertex="1" parent="V0L1piygFVYsYo5sQdoZ-222">
          <mxGeometry y="78" width="200" height="26" as="geometry" />
        </mxCell>
        <mxCell id="V0L1piygFVYsYo5sQdoZ-225" value="" style="line;html=1;strokeWidth=1;align=left;verticalAlign=middle;spacingTop=-1;spacingLeft=3;spacingRight=3;rotatable=0;labelPosition=right;points=[];portConstraint=eastwest;" vertex="1" parent="V0L1piygFVYsYo5sQdoZ-222">
          <mxGeometry y="104" width="200" height="8" as="geometry" />
        </mxCell>
        <mxCell id="V0L1piygFVYsYo5sQdoZ-226" value="+FrameGestore(ControllerGestore)" style="text;align=left;verticalAlign=top;spacingLeft=4;spacingRight=4;overflow=hidden;rotatable=0;points=[[0,0.5],[1,0.5]];portConstraint=eastwest;" vertex="1" parent="V0L1piygFVYsYo5sQdoZ-222">
          <mxGeometry y="112" width="200" height="26" as="geometry" />
        </mxCell>
        <mxCell id="V0L1piygFVYsYo5sQdoZ-241" value="FrameVisualizza" style="swimlane;fontStyle=2;align=center;verticalAlign=top;childLayout=stackLayout;horizontal=1;startSize=26;horizontalStack=0;resizeParent=1;resizeLast=0;collapsible=1;marginBottom=0;rounded=0;shadow=0;strokeWidth=1;" vertex="1" parent="1">
          <mxGeometry x="2670" y="420" width="240" height="130" as="geometry">
            <mxRectangle x="230" y="140" width="160" height="26" as="alternateBounds" />
          </mxGeometry>
        </mxCell>
        <mxCell id="V0L1piygFVYsYo5sQdoZ-242" value="+FrameVisualizza(ControllerGestore, int)" style="text;align=left;verticalAlign=top;spacingLeft=4;spacingRight=4;overflow=hidden;rotatable=0;points=[[0,0.5],[1,0.5]];portConstraint=eastwest;" vertex="1" parent="V0L1piygFVYsYo5sQdoZ-241">
          <mxGeometry y="26" width="240" height="26" as="geometry" />
        </mxCell>
        <mxCell id="V0L1piygFVYsYo5sQdoZ-243" value="-visualizzaGioco(): FieldVisualizza[]" style="text;align=left;verticalAlign=top;spacingLeft=4;spacingRight=4;overflow=hidden;rotatable=0;points=[[0,0.5],[1,0.5]];portConstraint=eastwest;" vertex="1" parent="V0L1piygFVYsYo5sQdoZ-241">
          <mxGeometry y="52" width="240" height="26" as="geometry" />
        </mxCell>
        <mxCell id="V0L1piygFVYsYo5sQdoZ-244" value="-visualizzaAutore(): FieldVisualizza[]" style="text;align=left;verticalAlign=top;spacingLeft=4;spacingRight=4;overflow=hidden;rotatable=0;points=[[0,0.5],[1,0.5]];portConstraint=eastwest;" vertex="1" parent="V0L1piygFVYsYo5sQdoZ-241">
          <mxGeometry y="78" width="240" height="26" as="geometry" />
        </mxCell>
        <mxCell id="V0L1piygFVYsYo5sQdoZ-245" value="-visualizzaGiocatore(): FieldVisualizza[]" style="text;align=left;verticalAlign=top;spacingLeft=4;spacingRight=4;overflow=hidden;rotatable=0;points=[[0,0.5],[1,0.5]];portConstraint=eastwest;" vertex="1" parent="V0L1piygFVYsYo5sQdoZ-241">
          <mxGeometry y="104" width="240" height="26" as="geometry" />
        </mxCell>
        <mxCell id="V0L1piygFVYsYo5sQdoZ-246" value="FrameLogin" style="swimlane;fontStyle=2;align=center;verticalAlign=top;childLayout=stackLayout;horizontal=1;startSize=26;horizontalStack=0;resizeParent=1;resizeLast=0;collapsible=1;marginBottom=0;rounded=0;shadow=0;strokeWidth=1;" vertex="1" parent="1">
          <mxGeometry x="3030" y="240" width="200" height="120" as="geometry">
            <mxRectangle x="230" y="140" width="160" height="26" as="alternateBounds" />
          </mxGeometry>
        </mxCell>
        <mxCell id="V0L1piygFVYsYo5sQdoZ-247" value="-username: JTextField" style="text;align=left;verticalAlign=top;spacingLeft=4;spacingRight=4;overflow=hidden;rotatable=0;points=[[0,0.5],[1,0.5]];portConstraint=eastwest;rounded=0;shadow=0;html=0;" vertex="1" parent="V0L1piygFVYsYo5sQdoZ-246">
          <mxGeometry y="26" width="200" height="26" as="geometry" />
        </mxCell>
        <mxCell id="V0L1piygFVYsYo5sQdoZ-248" value="-password: JPasswordField" style="text;align=left;verticalAlign=top;spacingLeft=4;spacingRight=4;overflow=hidden;rotatable=0;points=[[0,0.5],[1,0.5]];portConstraint=eastwest;rounded=0;shadow=0;html=0;" vertex="1" parent="V0L1piygFVYsYo5sQdoZ-246">
          <mxGeometry y="52" width="200" height="26" as="geometry" />
        </mxCell>
        <mxCell id="V0L1piygFVYsYo5sQdoZ-250" value="" style="line;html=1;strokeWidth=1;align=left;verticalAlign=middle;spacingTop=-1;spacingLeft=3;spacingRight=3;rotatable=0;labelPosition=right;points=[];portConstraint=eastwest;" vertex="1" parent="V0L1piygFVYsYo5sQdoZ-246">
          <mxGeometry y="78" width="200" height="8" as="geometry" />
        </mxCell>
        <mxCell id="V0L1piygFVYsYo5sQdoZ-251" value="+FrameLogin(UserManager)" style="text;align=left;verticalAlign=top;spacingLeft=4;spacingRight=4;overflow=hidden;rotatable=0;points=[[0,0.5],[1,0.5]];portConstraint=eastwest;" vertex="1" parent="V0L1piygFVYsYo5sQdoZ-246">
          <mxGeometry y="86" width="200" height="26" as="geometry" />
        </mxCell>
      </root>
    </mxGraphModel>
  </diagram>
</mxfile>
